<svg xmlns="http://www.w3.org/2000/svg" viewBox="0 0 1024 1024" role="img" aria-label="Jenan Pro app icon">
  <defs>
    <radialGradient id="bgGlow" cx="52%" cy="34%" r="68%">
      <stop offset="0" stop-color="#173a55" />
      <stop offset="0.42" stop-color="#071827" />
      <stop offset="1" stop-color="#020711" />
    </radialGradient>
    <linearGradient id="gold" x1="210" y1="146" x2="820" y2="870" gradientUnits="userSpaceOnUse">
      <stop offset="0" stop-color="#fff4ba" />
      <stop offset="0.24" stop-color="#d6a23e" />
      <stop offset="0.48" stop-color="#fff1a8" />
      <stop offset="0.72" stop-color="#a96f17" />
      <stop offset="1" stop-color="#ffe9a4" />
    </linearGradient>
    <linearGradient id="goldDark" x1="250" y1="210" x2="770" y2="830" gradientUnits="userSpaceOnUse">
      <stop offset="0" stop-color="#9b681e" />
      <stop offset="0.5" stop-color="#f2cd78" />
      <stop offset="1" stop-color="#5e390e" />
    </linearGradient>
    <linearGradient id="ice" x1="318" y1="330" x2="704" y2="762" gradientUnits="userSpaceOnUse">
      <stop offset="0" stop-color="#ffffff" />
      <stop offset="0.45" stop-color="#c6d7e6" />
      <stop offset="1" stop-color="#7d93aa" />
    </linearGradient>
    <filter id="shadow" x="-20%" y="-20%" width="140%" height="140%">
      <feDropShadow dx="0" dy="22" stdDeviation="28" flood-color="#000000" flood-opacity="0.5" />
      <feDropShadow dx="0" dy="0" stdDeviation="18" flood-color="#e2b65a" flood-opacity="0.22" />
    </filter>
  </defs>
  <rect width="1024" height="1024" rx="226" fill="url(#bgGlow)" />
  <circle cx="512" cy="512" r="414" fill="none" stroke="#dba94a" stroke-width="2" opacity="0.2" />
  <path d="M178 606c114-196 322-312 585-356" fill="none" stroke="url(#gold)" stroke-width="34" stroke-linecap="round" opacity="0.94" filter="url(#shadow)" />
  <path d="M836 372c-92 196-302 328-584 395" fill="none" stroke="url(#goldDark)" stroke-width="30" stroke-linecap="round" opacity="0.92" />
  <ellipse cx="512" cy="520" rx="384" ry="122" fill="none" stroke="url(#gold)" stroke-width="26" transform="rotate(-25 512 520)" opacity="0.9" />
  <ellipse cx="512" cy="520" rx="336" ry="92" fill="none" stroke="#fff0ad" stroke-width="8" transform="rotate(23 512 520)" opacity="0.56" />
  <g filter="url(#shadow)">
    <path d="M396 220h142v439c0 91-58 150-151 150-55 0-101-20-136-55l71-93c17 18 35 28 56 28 28 0 44-19 44-57V344h-86z" fill="url(#gold)" />
    <path d="M556 220h168c103 0 174 66 174 161 0 98-73 164-180 164h-42v248H556zm120 109v109h37c39 0 63-21 63-55 0-33-23-54-61-54z" fill="url(#gold)" />
  </g>
  <g opacity="0.82">
    <circle cx="514" cy="520" r="150" fill="#091827" stroke="url(#ice)" stroke-width="7" />
    <path d="M370 520h288M514 370c54 72 54 227 0 300M514 370c-54 72-54 227 0 300" fill="none" stroke="#b9cad9" stroke-width="5" opacity="0.7" />
    <path d="M414 414c54 29 145 29 200 0M414 626c54-29 145-29 200 0" fill="none" stroke="#b9cad9" stroke-width="5" opacity="0.55" />
    <path d="M453 454l38-15 43 23 40-10 30 37-25 43-59 5-31 44-54-11-16-54z" fill="url(#ice)" opacity="0.9" />
  </g>
</svg>